<?xml version="1.0" standalone="no"?>
<!DOCTYPE svg PUBLIC "-//W3C//DTD SVG 20010904//EN"
 "http://www.w3.org/TR/2001/REC-SVG-20010904/DTD/svg10.dtd">
<svg version="1.0" xmlns="http://www.w3.org/2000/svg"
 width="500.000000pt" height="500.000000pt" viewBox="0 0 500.000000 500.000000"
 preserveAspectRatio="xMidYMid meet">

<g transform="translate(0.000000,500.000000) scale(0.100000,-0.100000)"
fill="#000000" stroke="none">
<path d="M2311 3805 c-540 -82 -953 -472 -1086 -1025 -22 -89 -30 -324 -16
-431 21 -157 98 -373 180 -504 131 -208 385 -419 607 -505 187 -72 383 -103
554 -89 507 43 952 387 1118 864 72 207 92 356 72 545 -34 324 -192 631 -429
834 -118 101 -133 111 -251 174 -230 121 -512 173 -749 137z m429 -103 c250
-66 441 -177 606 -354 155 -167 278 -418 304 -621 13 -106 13 -275 -1 -374
-64 -469 -526 -936 -991 -1002 -148 -21 -199 -23 -310 -11 -144 14 -239 40
-357 96 -329 155 -570 429 -660 749 -75 267 -67 480 29 765 39 116 189 348
282 437 176 167 400 282 643 329 102 19 357 12 455 -14z"/>
<path d="M2703 3532 c-111 -135 -236 -294 -303 -387 -25 -34 -79 -104 -121
-156 -41 -52 -89 -114 -106 -139 -17 -25 -40 -54 -52 -64 -39 -35 -22 -35 62
-1 139 57 232 92 235 90 6 -5 -133 -224 -298 -470 -106 -158 -164 -251 -149
-239 8 6 25 15 39 19 14 4 122 50 240 102 215 95 290 126 290 118 0 -2 -15
-68 -34 -147 -46 -188 -76 -318 -76 -324 0 -10 104 113 154 182 28 39 76 102
107 140 30 38 99 128 153 199 54 72 110 143 125 158 l26 29 -45 -20 c-25 -11
-103 -46 -175 -77 -71 -32 -147 -66 -169 -77 -21 -10 -41 -17 -43 -14 -5 5 40
126 62 168 22 39 19 40 -25 18 -22 -11 -73 -32 -113 -47 -39 -14 -87 -34 -106
-44 -19 -10 -36 -17 -38 -15 -2 2 18 33 44 69 62 83 183 252 284 396 64 91 74
109 49 91 -38 -27 -170 -100 -181 -100 -4 0 8 34 27 76 19 41 34 79 34 84 0
10 171 414 195 460 32 63 5 40 -92 -78z"/>
<path d="M1980 1911 c-64 -11 -80 -84 -28 -132 29 -26 40 -29 95 -29 56 0 63
-2 63 -20 0 -19 -7 -20 -100 -20 l-100 0 0 -30 0 -30 120 0 c116 0 120 1 136
25 21 33 11 90 -19 107 -12 7 -51 15 -87 18 -57 4 -65 8 -65 25 0 18 7 20 88
20 l87 -1 0 33 0 33 -64 0 c-35 0 -70 2 -78 4 -7 2 -29 1 -48 -3z"/>
<path d="M2240 1784 l0 -135 38 3 37 3 0 68 c0 37 3 67 6 67 9 0 56 -37 117
-92 45 -40 60 -48 93 -48 l39 0 0 135 0 135 -35 0 -35 0 0 -85 c0 -47 -3 -85
-6 -85 -11 0 -66 43 -138 107 -42 37 -80 63 -93 63 -23 0 -23 -2 -23 -136z"/>
<path d="M2640 1783 l0 -134 38 3 37 3 3 68 3 68 27 -20 c15 -10 52 -42 82
-70 42 -39 63 -51 88 -51 l32 0 0 129 c0 121 -1 130 -20 136 -34 11 -40 -3
-40 -86 0 -91 -3 -92 -73 -26 -69 66 -122 104 -149 109 l-28 5 0 -134z"/>
</g>
</svg>
